<?xml version="1.0" encoding="utf-8"?>
<!-- Generator: Adobe Illustrator 27.2.0, SVG Export Plug-In . SVG Version: 6.00 Build 0)  -->
<svg version="1.1" id="Layer_1" xmlns="http://www.w3.org/2000/svg" xmlns:xlink="http://www.w3.org/1999/xlink" x="0px" y="0px"
	 viewBox="0 0 31.9 32" style="enable-background:new 0 0 31.9 32;" xml:space="preserve">
<style type="text/css">
	.st0{fill:#2DA2E9;}
	.st1{fill:#FDFEFF;}
</style>
<g>
	<path class="st0" d="M15.2,25.9c0.3,0.3,0.7,0.5,1,0.8c0.2,0.2,0.5,0.4,0.4,0.6c-0.1,0.2-0.5,0.1-0.7,0c-1.9-1-3.7-2.1-5.4-3.3
		c-1.3-0.9-2.5-1.9-3.6-3c-0.1-0.1-0.2-0.2-0.3-0.3c-1-1-1.8-2.1-2.5-3.3c0-0.1,0-0.2-0.2-0.2c-0.1-0.2-0.2-0.4-0.3-0.6
		c-0.1-0.1-0.1-0.3-0.2-0.4c-0.2-0.7-0.5-1.4-0.5-2.2c0-0.3,0-0.7,0-1c0.1-1.8,1-3.3,2.2-4.6C6.6,6.8,8.5,5.6,10.7,5
		c0.3-0.1,0.6-0.2,1-0.2c0.1,0,0.1,0,0.2-0.1c0.2,0,0.4,0,0.6,0c0.3,0,0.6,0,0.8,0c1.7,0.1,3,1,3.4,2.7c0.3,1.2,0.1,2.3-0.2,3.4
		c0,0,0,0.1,0,0.1c-0.1,0-0.1,0.1-0.1,0.1c0,0.4-0.2,0.7-0.3,1.1c0,0-0.1,0-0.1,0.1c-0.2,0.4-0.3,0.9-0.5,1.3c0,0-0.1,0-0.1,0.1
		c-0.1,0.3-0.2,0.6-0.3,0.8c-0.1,0-0.1,0.1,0,0.2c-0.1,0.3-0.2,0.5,0.1,0.7c0.1,0.1,0.2,0.1,0.2,0c0.7-0.3,1.4-0.7,2.1-1.1
		c1.3-0.8,2.5-1.6,3.9-2.2c1-0.4,2.1-0.7,3.2-0.6c0,0.1,0.1,0.1,0.2,0.1c0.1,0,0.3,0,0.4,0c0,0,0,0.1,0.1,0.1
		c1.5,0.4,2.5,1.5,3.1,2.9c0,0.1,0,0.1,0.1,0.1c0.3,0.8,0.5,1.7,0.5,2.5c0,0.1,0,0.2,0,0.2c0,0.1,0,0.3,0,0.4c0,0.1,0,0.1,0,0.2
		c0,0.3-0.1,0.6-0.1,0.8c-0.1,0-0.1,0.1-0.1,0.2c0,0,0,0.1,0,0.1c0,0.1-0.1,0.2-0.1,0.3c0,0.1,0,0.2,0,0.3c0,0-0.1,0-0.1,0.1
		c-0.3,1.7-1.1,3.2-2.2,4.6c-0.2,0.2-0.4,0.4-0.6,0.7c-0.1,0.1-0.3,0.3-0.4,0.4c-0.8,0.8-1.7,1.4-2.6,2c-0.1,0-0.2,0.1-0.2,0.1
		c-0.2,0-0.5,0.3-0.6,0c-0.1-0.2,0.1-0.4,0.3-0.5c0.5-0.4,1-0.9,1.4-1.4c0.1-0.1,0.3-0.2,0.3-0.4c0.4-0.4,0.8-0.9,1.1-1.5
		c0,0,0,0,0,0c0.5-0.7,0.9-1.4,1.1-2.2c0.1-0.1,0.1-0.2,0.1-0.3c0.1-0.1,0.2-0.2,0.1-0.4c0.1-0.2,0.2-0.3,0.2-0.5
		c0-0.3,0.2-0.5,0.2-0.8c0-0.1,0-0.1,0-0.2c0.1-0.1,0.1-0.3,0.1-0.4c0-0.7,0.1-1.5-0.1-2.2c0-0.1,0.1-0.2-0.1-0.3
		c-0.4-1.7-1.5-2.8-3.4-2.3c-1.4,0.4-2.6,1.2-3.8,2c-0.8,0.5-1.5,1-2.3,1.5c-0.1,0-0.1,0-0.2,0.1c-0.2,0.1-0.4,0.2-0.6,0.3
		c0,0-0.1,0-0.1,0.1C16,18,15.7,18,15.3,18c-0.1,0-0.1,0-0.2,0c-1.3,0.1-2.7-1-2.9-2.6c0-0.1,0-0.1,0-0.2c0.1-0.7,0.2-1.3,0.5-1.9
		c0-0.1,0.1-0.2,0-0.2c0.1,0,0.1-0.1,0.1-0.2c0.3-0.6,0.5-1.3,0.7-1.9c0.1,0,0.2,0,0.1-0.2c0.1-0.5,0.4-1.1,0.4-1.6
		c0-0.1,0-0.2,0-0.3c0-0.1,0-0.1,0-0.2c0-0.1,0-0.3,0-0.4c0-0.1,0.1-0.2-0.1-0.3c0-0.4-0.2-0.6-0.7-0.7c-0.1-0.1-0.2-0.1-0.3-0.1
		c-0.1,0-0.3-0.1-0.4-0.1c-0.1,0-0.1,0-0.2,0.1c-0.8,0-1.5,0.2-2.1,0.6c-0.1,0-0.2,0.1-0.2,0.1c-0.7,0.2-1.3,0.6-1.8,1
		C8,9.3,7.6,9.5,7.4,9.9c-0.3,0.1-0.5,0.4-0.7,0.6c-0.4,0.4-0.8,0.9-1,1.5c0,0-0.1,0-0.1,0.1c0,0,0,0,0,0.1c0,0-0.1,0-0.1,0.1
		c0,0.2-0.1,0.3-0.1,0.5c-0.1,0.2-0.1,0.4-0.1,0.5c0,0.4-0.1,0.8,0.1,1.2c0,0.1-0.1,0.3,0.1,0.5c0,0.2,0,0.4,0.2,0.6
		c0,0.1,0.1,0.3,0.1,0.4c0.2,0.4,0.4,0.8,0.6,1.2c0,0,0,0.1,0.1,0.1c0.1,0.2,0.2,0.4,0.4,0.6c0,0.2,0.1,0.2,0.2,0.3
		c0.2,0.5,0.6,0.8,0.9,1.2C8.5,19.9,9,20.5,9.6,21c0.6,0.6,1.2,1.3,1.9,1.8c0,0,0.1,0,0.1,0.1c0.1,0.1,0.3,0.2,0.4,0.3
		c0,0.1,0.1,0.2,0.2,0.2c0.7,0.7,1.4,1.2,2.1,1.8c0,0,0.1,0,0.1,0.1C14.7,25.5,14.9,25.7,15.2,25.9C15.2,25.9,15.2,25.9,15.2,25.9z"
		/>
	<path class="st1" d="M26.3,21.3c-0.2,0.8-0.7,1.5-1.1,2.2c0.1-0.5,0.4-1,0.6-1.5c0.1-0.2,0.1-0.3,0.2-0.5
		C26.1,21.4,26.2,21.3,26.3,21.3z"/>
	<path class="st1" d="M25.2,23.6c-0.3,0.5-0.6,1-1.1,1.5c-0.2-0.2,0.1-0.3,0.2-0.5c0.2-0.3,0.5-0.6,0.7-0.9
		C25.1,23.6,25.2,23.6,25.2,23.6z"/>
	<path class="st1" d="M2.9,13c0,0.3,0,0.7,0,1C2.6,13.8,2.6,13.3,2.9,13z"/>
	<path class="st1" d="M6.7,10.5c0.2-0.2,0.4-0.5,0.7-0.6C7.3,10.3,7.1,10.5,6.7,10.5z"/>
	<path class="st1" d="M26.9,19.3c0.1,0.3-0.1,0.5-0.2,0.8C26.5,19.9,26.6,19.6,26.9,19.3z"/>
	<path class="st1" d="M13.3,4.6c-0.3,0-0.6,0-0.8,0C12.7,4.5,13.1,4.5,13.3,4.6z"/>
	<path class="st1" d="M5.3,13.3c0.1-0.2,0-0.4,0.1-0.5C5.6,12.9,5.7,13.1,5.3,13.3z"/>
	<path class="st1" d="M5.5,14.9c-0.1-0.1,0-0.3-0.1-0.5C5.6,14.5,5.7,14.7,5.5,14.9z"/>
	<path class="st1" d="M25.6,25.2c0.1-0.1,0.3-0.3,0.4-0.4C26,25.1,25.8,25.2,25.6,25.2z"/>
	<path class="st1" d="M26.6,20.6c0,0.2,0,0.3-0.1,0.4C26.3,20.8,26.3,20.7,26.6,20.6z"/>
	<path class="st1" d="M3.4,16.3c0.1,0.1,0.1,0.3,0.2,0.4C3.3,16.6,3.3,16.5,3.4,16.3z"/>
	<path class="st1" d="M5.8,15.9c-0.1-0.1-0.1-0.2-0.1-0.4C5.8,15.6,5.9,15.7,5.8,15.9z"/>
	<path class="st1" d="M6.6,20.8c0.1,0.1,0.2,0.2,0.3,0.3C6.6,21.1,6.5,21,6.6,20.8z"/>
	<path class="st1" d="M27,18.8c0,0.1,0.1,0.3-0.1,0.4C26.9,19,26.7,18.9,27,18.8z"/>
	<path class="st1" d="M13.1,7.4c0.1,0,0.2-0.1,0.3,0.1C13.3,7.5,13.1,7.6,13.1,7.4z"/>
	<path class="st1" d="M10.2,8c0.1-0.1,0.1-0.2,0.2-0.1C10.4,8.1,10.3,8.2,10.2,8z"/>
	<path class="st1" d="M7.1,18.1C7,18,6.9,17.9,6.8,17.8C7.1,17.8,7.1,17.9,7.1,18.1z"/>
	<path class="st1" d="M26.7,16.3c0.1,0.1,0,0.2,0.1,0.3C26.6,16.5,26.6,16.4,26.7,16.3z"/>
	<path class="st1" d="M14.1,8.1c0.1,0.1,0.1,0.2,0.1,0.3C13.9,8.4,14,8.2,14.1,8.1z"/>
	<path class="st1" d="M12.2,23.4c-0.1,0-0.2-0.1-0.2-0.2C12.2,23.1,12.2,23.3,12.2,23.4z"/>
	<path class="st1" d="M13.7,10.9c0,0.1,0,0.2-0.1,0.2C13.4,10.8,13.6,10.9,13.7,10.9z"/>
	<path class="st1" d="M28.8,19.2c0-0.1,0.1-0.2,0.1-0.3C29,19,29,19.1,28.8,19.2z"/>
	<path class="st1" d="M29.1,17.3c0-0.1,0-0.2,0-0.2c0.1,0,0.2,0,0.1,0.1C29.2,17.2,29.1,17.2,29.1,17.3z"/>
	<path class="st1" d="M15.6,15.3c-0.1,0.1-0.2,0.1-0.2,0C15.5,15.2,15.5,15.2,15.6,15.3z"/>
	<path class="st1" d="M3.9,17.2C4,17.3,4,17.4,4,17.5C3.9,17.5,3.9,17.4,3.9,17.2z"/>
	<path class="st1" d="M12.3,15.3c0,0.1,0,0.1,0,0.2c0,0-0.1,0-0.1-0.1C12.2,15.3,12.2,15.3,12.3,15.3z"/>
	<path class="st1" d="M15.3,14.6c0-0.1,0-0.1,0-0.2C15.4,14.5,15.4,14.5,15.3,14.6z"/>
	<path class="st1" d="M17.1,17.6c0-0.1,0.1-0.1,0.2-0.1C17.2,17.6,17.2,17.7,17.1,17.6z"/>
	<path class="st1" d="M29,17.8c0-0.1,0-0.1,0-0.2c0,0,0.1,0,0.1,0.1C29.2,17.8,29.1,17.8,29,17.8z"/>
	<path class="st1" d="M12.8,13c0,0.1,0,0.1-0.1,0.2C12.6,13,12.7,13,12.8,13z"/>
	<path class="st1" d="M15.1,18c0.1,0,0.1,0,0.2,0c0,0,0,0.1-0.1,0.1C15.2,18.1,15.2,18.1,15.1,18z"/>
	<path class="st1" d="M28.9,18.8c0-0.1,0-0.1,0.1-0.2C29.1,18.7,29,18.8,28.9,18.8z"/>
	<path class="st1" d="M24.9,11.4c-0.1,0-0.1,0-0.2-0.1C24.8,11.2,24.9,11.3,24.9,11.4z"/>
	<path class="st1" d="M16.5,11c0-0.1,0-0.1,0.1-0.1C16.6,11,16.6,11,16.5,11z"/>
	<path class="st1" d="M14.1,8.8c0,0.1,0,0.1,0,0.2c0,0-0.1,0-0.1-0.1C14,8.8,14.1,8.8,14.1,8.8z"/>
	<path class="st1" d="M12.5,7.3c0-0.1,0.1-0.1,0.2-0.1C12.7,7.4,12.6,7.5,12.5,7.3z"/>
	<path class="st1" d="M11.9,4.7c0,0.1-0.1,0.1-0.2,0.1C11.7,4.6,11.8,4.5,11.9,4.7z"/>
	<path class="st1" d="M28.5,14.5C28.5,14.5,28.4,14.5,28.5,14.5C28.5,14.4,28.5,14.5,28.5,14.5z"/>
	<path class="st1" d="M6.5,17.2C6.4,17.2,6.4,17.1,6.5,17.2C6.4,17.1,6.4,17.2,6.5,17.2z"/>
	<path class="st1" d="M15.6,13.6C15.5,13.5,15.6,13.5,15.6,13.6C15.6,13.5,15.6,13.5,15.6,13.6z"/>
	<path class="st1" d="M16.4,17.9C16.4,17.8,16.4,17.8,16.4,17.9C16.4,17.8,16.4,17.8,16.4,17.9z"/>
	<path class="st1" d="M5.6,12.3C5.6,12.2,5.6,12.2,5.6,12.3C5.6,12.2,5.6,12.2,5.6,12.3z"/>
	<path class="st1" d="M16.1,12.2C16.1,12.1,16.1,12.1,16.1,12.2C16.1,12.1,16.1,12.2,16.1,12.2z"/>
	<path class="st1" d="M5.6,12.1C5.6,12.1,5.7,12,5.6,12.1C5.7,12.1,5.7,12.1,5.6,12.1z"/>
	<path class="st1" d="M28.8,19.6C28.7,19.5,28.8,19.5,28.8,19.6C28.8,19.5,28.8,19.5,28.8,19.6z"/>
	<path class="st1" d="M25.4,11.5C25.3,11.5,25.3,11.5,25.4,11.5C25.3,11.4,25.3,11.5,25.4,11.5z"/>
	<path class="st1" d="M11.6,22.9C11.6,22.9,11.6,22.9,11.6,22.9C11.6,22.9,11.6,22.9,11.6,22.9z"/>
	<path class="st1" d="M14.5,25.3C14.4,25.3,14.4,25.3,14.5,25.3C14.4,25.3,14.4,25.3,14.5,25.3z"/>
	<path class="st1" d="M15.2,25.9C15.2,25.9,15.2,25.9,15.2,25.9C15.2,25.9,15.2,25.9,15.2,25.9z"/>
</g>
</svg>
